<?xml version="1.0" encoding="iso-8859-1"?>
<!-- Generator: Adobe Illustrator 18.0.0, SVG Export Plug-In . SVG Version: 6.00 Build 0)  -->
<!DOCTYPE svg PUBLIC "-//W3C//DTD SVG 1.1//EN" "http://www.w3.org/Graphics/SVG/1.1/DTD/svg11.dtd">
<svg version="1.1" id="Capa_1" xmlns="http://www.w3.org/2000/svg" xmlns:xlink="http://www.w3.org/1999/xlink" x="0px" y="0px"
	 viewBox="0 0 56 56" style="enable-background:new 0 0 56 56;" xml:space="preserve">
<g>
	<path style="fill:#E9E9E0;" d="M36.985,0H7.963C7.155,0,6.5,0.655,6.5,1.926V55c0,0.345,0.655,1,1.463,1h40.074
		c0.808,0,1.463-0.655,1.463-1V12.978c0-0.696-0.093-0.92-0.257-1.085L37.607,0.257C37.442,0.093,37.218,0,36.985,0z"/>
	<polygon style="fill:#D9D7CA;" points="37.5,0.151 37.5,12 49.349,12 	"/>
	<circle style="fill:#F3D55B;" cx="18.931" cy="14.431" r="4.569"/>
	<polygon style="fill:#26B99A;" points="6.5,39 17.5,39 49.5,39 49.5,28 39.5,18.5 29,30 23.517,24.517 	"/>
	<path style="fill:#14A085;" d="M48.037,56H7.963C7.155,56,6.5,55.345,6.5,54.537V39h43v15.537C49.5,55.345,48.845,56,48.037,56z"/>
	<g>
		<!--<path style="fill:#FFFFFF;" d="M20.067,53l3.527-10.063h1.627L28.722,53h-1.695l-0.725-2.092h-3.787L21.776,53H20.067z
			 M22.897,49.801h3.008l-1.49-4.348L22.897,49.801z"/>
		<path style="fill:#FFFFFF;" d="M25.861,53.055L22.73,42.924h1.873l2.338,8.695l2.475-8.695h1.859l-3.281,10.131H25.861z"/>
		<path style="fill:#FFFFFF;" d="M32.536,53h-1.668V42.924h1.668V53z"/>-->
	</g>
</g>
<g>
</g>
<g>
</g>
<g>
</g>
<g>
</g>
<g>
</g>
<g>
</g>
<g>
</g>
<g>
</g>
<g>
</g>
<g>
</g>
<g>
</g>
<g>
</g>
<g>
</g>
<g>
</g>
<g>
</g>
</svg>
