<?xml version="1.0" standalone="no"?>
<!DOCTYPE svg PUBLIC "-//W3C//DTD SVG 20010904//EN"
 "http://www.w3.org/TR/2001/REC-SVG-20010904/DTD/svg10.dtd">
<svg version="1.0" xmlns="http://www.w3.org/2000/svg"
 width="100.000000pt" height="100.000000pt" viewBox="0 0 100.000000 100.000000"
 preserveAspectRatio="xMidYMid meet">

<g transform="translate(0.000000,100.000000) scale(0.100000,-0.100000)"
fill="#000000" stroke="none">
<path d="M561 482 c-32 -16 -74 -82 -52 -82 5 0 14 13 21 29 25 62 115 62 140
0 16 -37 -1 -82 -36 -98 -16 -7 -95 -11 -214 -11 -120 0 -190 -4 -190 -10 0
-17 364 -13 406 5 77 32 77 138 0 170 -43 18 -34 18 -75 -3z"/>
<path d="M180 240 c0 -7 96 -10 291 -10 181 0 298 -4 310 -10 37 -20 15 -100
-27 -100 -24 0 -54 19 -54 35 0 8 -4 15 -10 15 -15 0 -12 -15 8 -41 26 -31 78
-31 104 0 23 30 23 63 -1 92 l-19 24 -301 3 c-204 2 -301 -1 -301 -8z"/>
<path d="M130 160 c0 -6 75 -11 191 -12 170 -3 193 -5 203 -21 26 -41 -39 -76
-68 -36 -19 28 -32 19 -16 -10 10 -20 27 -26 60 -21 42 5 58 72 24 97 -22 16
-394 19 -394 3z"/>
</g>
</svg>
