<?xml version="1.0" standalone="no"?>
<!DOCTYPE svg PUBLIC "-//W3C//DTD SVG 20010904//EN"
 "http://www.w3.org/TR/2001/REC-SVG-20010904/DTD/svg10.dtd">
<svg version="1.0" xmlns="http://www.w3.org/2000/svg"
 width="100.000000pt" height="100.000000pt" viewBox="0 0 100.000000 100.000000"
 preserveAspectRatio="xMidYMid meet">

<g transform="translate(0.000000,100.000000) scale(0.100000,-0.100000)"
fill="#000000" stroke="none">
<path d="M246 931 c-21 -40 -20 -58 3 -71 15 -7 23 -6 35 6 14 14 14 19 1 52
-21 48 -21 48 -39 13z m29 -51 c-3 -6 -10 -10 -16 -10 -10 0 -12 33 -2 44 9 9
26 -22 18 -34z"/>
<path d="M852 891 c-12 -30 -22 -61 -22 -70 0 -23 20 -41 45 -41 49 0 56 38
21 114 l-22 50 -22 -53z m41 -52 c2 -28 -2 -34 -18 -34 -24 0 -29 22 -15 60
13 35 31 22 33 -26z"/>
<path d="M85 880 c-32 -63 -36 -89 -14 -111 10 -10 24 -19 29 -19 5 0 19 9 29
19 21 21 19 38 -12 110 l-15 35 -17 -34z m34 -52 c9 -26 8 -35 -4 -47 -13 -14
-17 -14 -30 0 -12 12 -13 21 -4 47 6 18 15 32 19 32 4 0 13 -14 19 -32z"/>
<path d="M477 244 c-3 -4 -4 -33 0 -64 5 -53 3 -60 -20 -84 -14 -14 -33 -26
-42 -26 -25 0 -65 46 -65 75 0 18 -5 25 -20 25 -17 0 -20 -7 -20 -39 0 -60 43
-101 105 -101 38 0 52 5 76 29 30 30 29 26 33 164 1 15 -6 23 -19 25 -12 2
-24 0 -28 -4z"/>
</g>
</svg>
