<?xml version="1.0" standalone="no"?>
<!DOCTYPE svg PUBLIC "-//W3C//DTD SVG 20010904//EN"
 "http://www.w3.org/TR/2001/REC-SVG-20010904/DTD/svg10.dtd">
<svg version="1.0" xmlns="http://www.w3.org/2000/svg"
 width="100.000000pt" height="100.000000pt" viewBox="0 0 100.000000 100.000000"
 preserveAspectRatio="xMidYMid meet">

<g transform="translate(0.000000,100.000000) scale(0.100000,-0.100000)"
fill="#000000" stroke="none">
<path d="M420 383 c0 -5 7 -17 15 -27 22 -29 19 -36 -20 -36 -19 0 -35 -4 -35
-10 0 -5 16 -10 35 -10 40 0 41 -2 19 -36 -25 -37 -10 -40 17 -3 l22 32 28
-34 c29 -35 41 -29 14 7 -22 29 -18 34 20 34 19 0 35 5 35 10 0 6 -16 10 -35
10 -39 0 -42 6 -19 38 9 13 13 26 9 30 -3 4 -10 0 -15 -8 -5 -8 -15 -24 -23
-34 -13 -18 -15 -18 -33 12 -17 30 -34 42 -34 25z"/>
<path d="M197 194 c-3 -4 2 -19 13 -34 11 -16 20 -31 20 -34 0 -3 -18 -6 -40
-6 -22 0 -40 -4 -40 -10 0 -5 18 -10 41 -10 l41 0 -22 -35 c-12 -19 -17 -35
-11 -35 5 0 18 14 28 30 9 17 21 30 25 30 4 0 15 -13 25 -30 9 -16 21 -30 26
-30 5 0 -1 16 -13 35 l-22 35 41 0 c23 0 41 5 41 10 0 6 -18 10 -40 10 -22 0
-40 3 -40 6 0 3 9 19 20 34 11 16 17 31 12 34 -4 2 -16 -11 -27 -30 -10 -19
-21 -34 -24 -34 -3 0 -15 16 -26 36 -11 19 -24 32 -28 28z"/>
<path d="M597 194 c-3 -4 2 -19 13 -34 11 -16 20 -31 20 -34 0 -3 -18 -6 -40
-6 -22 0 -40 -4 -40 -10 0 -5 18 -10 41 -10 l41 0 -22 -35 c-12 -19 -17 -35
-11 -35 5 0 18 14 28 30 9 17 21 30 25 30 4 0 15 -13 25 -30 9 -16 21 -30 26
-30 5 0 -1 16 -13 35 l-22 35 41 0 c23 0 41 5 41 10 0 6 -18 10 -40 10 -22 0
-40 3 -40 6 0 3 9 19 20 34 11 16 17 31 12 34 -4 2 -16 -11 -27 -30 -10 -19
-21 -34 -24 -34 -3 0 -15 16 -26 36 -11 19 -24 32 -28 28z"/>
</g>
</svg>
