<?xml version="1.0" encoding="UTF-8" standalone="no"?>
<!-- Generator: Adobe Illustrator 18.0.0, SVG Export Plug-In . SVG Version: 6.00 Build 0)  -->

<svg
   version="1.1"
   id="Capa_1"
   x="0px"
   y="0px"
   viewBox="0 0 56 56"
   style="enable-background:new 0 0 56 56;"
   xml:space="preserve"
   sodipodi:docname="shape.svg"
   inkscape:version="1.2.2 (732a01da63, 2022-12-09)"
   xmlns:inkscape="http://www.inkscape.org/namespaces/inkscape"
   xmlns:sodipodi="http://sodipodi.sourceforge.net/DTD/sodipodi-0.dtd"
   xmlns="http://www.w3.org/2000/svg"
   xmlns:svg="http://www.w3.org/2000/svg"><defs
   id="defs185" /><sodipodi:namedview
   id="namedview183"
   pagecolor="#ffffff"
   bordercolor="#000000"
   borderopacity="0.25"
   inkscape:showpageshadow="2"
   inkscape:pageopacity="0.0"
   inkscape:pagecheckerboard="0"
   inkscape:deskcolor="#d1d1d1"
   showgrid="false"
   inkscape:zoom="14.535714"
   inkscape:cx="12.899263"
   inkscape:cy="29.513514"
   inkscape:window-width="2048"
   inkscape:window-height="1089"
   inkscape:window-x="-8"
   inkscape:window-y="-8"
   inkscape:window-maximized="1"
   inkscape:current-layer="layer1" />
<g
   id="g150">
	<path
   style="fill:#E9E9E0;"
   d="M36.985,0H7.963C7.155,0,6.5,0.655,6.5,1.926V55c0,0.345,0.655,1,1.463,1h40.074   c0.808,0,1.463-0.655,1.463-1V12.978c0-0.696-0.093-0.92-0.257-1.085L37.607,0.257C37.442,0.093,37.218,0,36.985,0z"
   id="path124" />
	<polygon
   style="fill:#D9D7CA;"
   points="37.5,0.151 37.5,12 49.349,12  "
   id="polygon126" />
	<path
   style="fill:#9777A8;"
   d="M48.037,56H7.963C7.155,56,6.5,55.345,6.5,54.537V39h43v15.537C49.5,55.345,48.845,56,48.037,56z"
   id="path128" />
	<g
   id="g138">
		<path
   style="fill:#FFFFFF;"
   d="M17.021,42.719v7.848c0,0.474-0.087,0.873-0.26,1.196s-0.405,0.583-0.697,0.779    s-0.627,0.333-1.005,0.41c-0.378,0.077-0.768,0.116-1.169,0.116c-0.2,0-0.436-0.021-0.704-0.062s-0.547-0.104-0.834-0.191    s-0.563-0.185-0.827-0.294s-0.487-0.232-0.67-0.369l0.697-1.107c0.091,0.063,0.221,0.13,0.39,0.198s0.354,0.132,0.554,0.191    s0.41,0.111,0.629,0.157s0.424,0.068,0.615,0.068c0.483,0,0.868-0.094,1.155-0.28s0.439-0.504,0.458-0.95v-7.711H17.021z"
   id="path130" />
		<path
   style="fill:#FFFFFF;"
   d="M25.184,50.238c0,0.364-0.075,0.718-0.226,1.06s-0.362,0.643-0.636,0.902s-0.61,0.467-1.012,0.622    s-0.856,0.232-1.367,0.232c-0.219,0-0.444-0.012-0.677-0.034s-0.467-0.062-0.704-0.116c-0.237-0.055-0.463-0.13-0.677-0.226    s-0.398-0.212-0.554-0.349l0.287-1.176c0.128,0.073,0.289,0.144,0.485,0.212s0.398,0.132,0.608,0.191s0.419,0.107,0.629,0.144    s0.405,0.055,0.588,0.055c0.556,0,0.982-0.13,1.278-0.39s0.444-0.645,0.444-1.155c0-0.31-0.104-0.574-0.314-0.793    s-0.472-0.417-0.786-0.595s-0.654-0.355-1.019-0.533s-0.706-0.388-1.025-0.629s-0.583-0.526-0.793-0.854s-0.314-0.738-0.314-1.23    c0-0.446,0.082-0.843,0.246-1.189s0.385-0.641,0.663-0.882s0.602-0.426,0.971-0.554s0.759-0.191,1.169-0.191    c0.419,0,0.843,0.039,1.271,0.116s0.774,0.203,1.039,0.376c-0.055,0.118-0.118,0.248-0.191,0.39s-0.142,0.273-0.205,0.396    s-0.118,0.226-0.164,0.308s-0.073,0.128-0.082,0.137c-0.055-0.027-0.116-0.063-0.185-0.109s-0.166-0.091-0.294-0.137    s-0.296-0.077-0.506-0.096s-0.479-0.014-0.807,0.014c-0.183,0.019-0.355,0.07-0.52,0.157s-0.31,0.193-0.438,0.321    s-0.228,0.271-0.301,0.431s-0.109,0.313-0.109,0.458c0,0.364,0.104,0.658,0.314,0.882s0.47,0.419,0.779,0.588    s0.647,0.333,1.012,0.492s0.704,0.354,1.019,0.581s0.576,0.513,0.786,0.854S25.184,49.7,25.184,50.238z"
   id="path132" />
		<path
   style="fill:#FFFFFF;"
   d="M35.082,47.914c0,0.848-0.107,1.595-0.321,2.242s-0.511,1.185-0.889,1.613s-0.82,0.752-1.326,0.971    s-1.06,0.328-1.661,0.328s-1.155-0.109-1.661-0.328s-0.948-0.542-1.326-0.971s-0.675-0.966-0.889-1.613s-0.321-1.395-0.321-2.242    s0.107-1.593,0.321-2.235s0.511-1.178,0.889-1.606s0.82-0.754,1.326-0.978s1.06-0.335,1.661-0.335s1.155,0.111,1.661,0.335    s0.948,0.549,1.326,0.978s0.675,0.964,0.889,1.606S35.082,47.066,35.082,47.914z M30.844,51.729c0.337,0,0.658-0.066,0.964-0.198    s0.579-0.349,0.82-0.649s0.431-0.695,0.567-1.183s0.21-1.082,0.219-1.784c-0.009-0.684-0.08-1.265-0.212-1.743    s-0.314-0.873-0.547-1.183s-0.497-0.533-0.793-0.67s-0.608-0.205-0.937-0.205c-0.337,0-0.658,0.063-0.964,0.191    s-0.579,0.344-0.82,0.649s-0.431,0.699-0.567,1.183c-0.137,0.483-0.21,1.075-0.219,1.777c0.009,0.684,0.08,1.267,0.212,1.75    s0.314,0.877,0.547,1.183s0.497,0.528,0.793,0.67S30.516,51.729,30.844,51.729z"
   id="path134" />
		<path
   style="fill:#FFFFFF;"
   d="M44.68,42.924V53h-1.668l-3.951-6.945V53h-1.668V42.924h1.668l3.951,6.945v-6.945H44.68z"
   id="path136" />
	</g>
	<g
   id="g148">
		<path
   style="fill:#9777A8;"
   d="M19.5,19v-4c0-0.551,0.448-1,1-1c0.553,0,1-0.448,1-1s-0.447-1-1-1c-1.654,0-3,1.346-3,3v4    c0,1.103-0.897,2-2,2c-0.553,0-1,0.448-1,1s0.447,1,1,1c1.103,0,2,0.897,2,2v4c0,1.654,1.346,3,3,3c0.553,0,1-0.448,1-1    s-0.447-1-1-1c-0.552,0-1-0.449-1-1v-4c0-1.2-0.542-2.266-1.382-3C18.958,21.266,19.5,20.2,19.5,19z"
   id="path140" />
		<circle
   style="fill:#9777A8;"
   cx="27.5"
   cy="18.5"
   r="1.5"
   id="circle142" />
		<path
   style="fill:#9777A8;"
   d="M39.5,21c-1.103,0-2-0.897-2-2v-4c0-1.654-1.346-3-3-3c-0.553,0-1,0.448-1,1s0.447,1,1,1    c0.552,0,1,0.449,1,1v4c0,1.2,0.542,2.266,1.382,3c-0.84,0.734-1.382,1.8-1.382,3v4c0,0.551-0.448,1-1,1c-0.553,0-1,0.448-1,1    s0.447,1,1,1c1.654,0,3-1.346,3-3v-4c0-1.103,0.897-2,2-2c0.553,0,1-0.448,1-1S40.053,21,39.5,21z"
   id="path144" />
		<path
   style="fill:#9777A8;"
   d="M27.5,24c-0.553,0-1,0.448-1,1v3c0,0.552,0.447,1,1,1s1-0.448,1-1v-3    C28.5,24.448,28.053,24,27.5,24z"
   id="path146" />
	</g>
</g>
<g
   id="g152">
</g>
<g
   id="g154">
</g>
<g
   id="g156">
</g>
<g
   id="g158">
</g>
<g
   id="g160">
</g>
<g
   id="g162">
</g>
<g
   id="g164">
</g>
<g
   id="g166">
</g>
<g
   id="g168">
</g>
<g
   id="g170">
</g>
<g
   id="g172">
</g>
<g
   id="g174">
</g>
<g
   id="g176">
</g>
<g
   id="g178">
</g>
<g
   id="g180">
</g>
<g
   id="g351"
   transform="translate(-472.68636,-478.6037)"><g
     transform="matrix(0.003125,0,0,-0.003125,484.37345,500.34305)"
     id="g349"><path
       d="M 4354.3,4970 C 1466.9,4574.6 -461.1,1739.3 247,-1068.4 c 386.2,-1541.8 1529.5,-2823 3034.5,-3402.3 2911.9,-1124.9 6161,836.8 6577.8,3969.4 C 10150.5,1693.3 8854,3851.2 6739,4691 6034,4970 5126.7,5077.2 4354.3,4970 Z m 760.2,-260.6 c 134.9,-125.7 282,-499.6 404.6,-1011.5 67.4,-294.3 183.9,-959.4 168.6,-974.7 -24.5,-27.6 -882.8,-42.9 -1124.9,-24.5 l -263.6,24.5 15.3,110.3 c 42.9,306.5 199.2,1036 272.8,1265.9 134.9,426.1 285.1,671.3 410.7,671.3 27.6,0 79.7,-27.6 116.5,-61.3 z m -554.8,-36.8 c -217.6,-484.3 -337.2,-898.1 -444.4,-1551 -33.7,-190 -64.4,-352.5 -73.6,-358.6 -21.4,-24.5 -640.6,98.1 -968.6,190 l -282,79.7 113.4,202.3 c 373.9,674.3 882.8,1180.1 1410,1397.7 199.2,82.9 269.7,95.1 245.2,39.9 z m 1109.5,-36.7 c 392.4,-159.4 787.8,-484.3 1106.5,-910.4 177.8,-239.1 398.5,-610 398.5,-668.2 0,-52.1 -545.6,-196.2 -1112.6,-294.3 -134.9,-21.5 -119.6,-49 -190.1,398.5 -27.6,187 -92,493.5 -141,686.6 -76.6,294.3 -125.7,432.2 -294.2,824.5 -24.5,55.2 30.7,46 232.9,-36.7 z m -2093.4,-187 c -294.3,-242.1 -671.3,-723.4 -892,-1149.4 -49,-92 -92,-174.7 -98.1,-180.8 -18.4,-30.6 -812.3,334.1 -800,367.8 15.3,39.8 429.1,373.9 616.1,496.5 282,187 677.4,386.2 980.8,499.6 156.3,55.2 300.4,101.1 321.8,104.2 24.6,0 -33.6,-61.3 -128.6,-137.9 z m 3006.9,42.9 c 321.8,-113.4 711.1,-309.6 1011.5,-508.8 220.7,-147.1 616.1,-469 619.2,-502.7 3.1,-33.7 -784.7,-386.2 -806.2,-361.7 -6.1,6.1 -49,88.9 -95,180.8 -202.3,398.5 -594.6,904.2 -892,1149.4 -95,76.6 -156.3,137.9 -141,137.9 18.4,0.1 153.3,-42.8 303.5,-94.9 z M 1819.4,3170.7 c 104.2,-52.1 294.3,-137.9 423,-190 l 233,-95 -116.5,-306.5 C 2144.3,2018.3 1994.1,1273.4 1945.1,550.1 L 1923.6,234.4 H 1126.7 332.8 l 21.5,239.1 c 73.6,821.5 337.2,1578.6 775.5,2237.6 168.6,251.4 426.1,557.9 469,557.9 15.3,-0.2 116.4,-43.1 220.6,-98.3 z M 8575,3100.2 C 9166.6,2410.5 9549.7,1469.5 9644.7,458 l 21.5,-223.8 h -796.9 -796.9 l -33.7,438.3 c -58.3,723.4 -233,1508.1 -444.4,2029.1 l -76.6,180.8 266.7,110.3 c 144,61.3 334.1,147.1 416.9,193.1 85.8,42.9 168.6,79.7 190,82.8 18.2,0.2 101,-76.4 183.7,-168.4 z M 3143.6,2683.4 c 187,-46 450.6,-107.3 591.6,-131.8 141,-21.5 263.6,-49 272.8,-58.2 6.1,-9.2 0,-165.5 -18.4,-349.4 -42.9,-410.7 -95,-1318 -95,-1655.2 V 234.3 h -861.3 -864.4 l 21.4,331 c 42.9,643.7 187,1391.6 370.9,1906.5 113.4,315.7 131.8,346.4 193.1,321.8 27.6,-12.2 205.4,-61.2 389.3,-110.2 z M 7410.3,2530.1 C 7606.5,2018.2 7756.7,1248.9 7805.7,550 l 21.5,-315.7 H 6969 6110.8 l -21.5,591.6 c -12.2,321.8 -39.8,827.6 -67.4,1121.9 -49,576.3 -46,585.4 107.3,585.4 95,0 732.6,144.1 950.2,214.6 95,30.7 187,52.1 202.3,49 18.2,-3.1 73.4,-122.6 128.6,-266.7 z m -1676.7,-88.9 c 0,-9.2 21.5,-236 46,-505.8 21.5,-269.7 52.1,-763.2 64.4,-1094.3 l 21.5,-606.9 H 4998 4130.6 l 21.5,600.8 c 12.3,331 39.9,824.5 64.4,1097.3 24.5,269.7 46,499.6 46,508.8 0,9.2 331,15.3 735.6,15.3 404.5,0.1 735.5,-6 735.5,-15.2 z M 1945.1,-323.6 c 49,-732.6 208.4,-1505 426,-2065.9 l 104.2,-272.8 -141,-55.2 c -76.6,-30.7 -275.9,-119.6 -444.4,-199.2 l -303.4,-144.1 -147.1,165.5 C 850.9,-2239.3 443.2,-1246.2 354.3,-247 l -21.5,236 h 793.9 796.9 z m 1949.4,46 c 0,-340.2 49,-1210.7 95,-1642.9 18.4,-183.9 27.6,-337.2 21.4,-343.3 -6.1,-6.1 -190,-49.1 -407.7,-92 -220.7,-39.8 -508.8,-110.4 -640.6,-150.2 -134.9,-42.9 -254.4,-70.5 -266.7,-61.3 -42.9,24.5 -217.6,548.7 -306.5,916.5 -104.2,438.3 -168.6,861.3 -199.2,1311.9 l -21.4,328 h 864.4 861.3 z M 5844,-599.4 c -18.4,-545.6 -52.1,-1048.3 -98.1,-1465.1 l -18.4,-168.6 h -732.6 c -401.5,0 -732.6,6.1 -732.6,15.3 0,9.2 -21.5,239.1 -46,508.8 -24.5,272.8 -52.1,766.3 -64.4,1097.3 l -21.5,600.8 h 867.6 867.4 z m 1961.7,275.8 c -33.7,-493.5 -104.2,-953.2 -217.6,-1388.5 -98.1,-383.1 -239.1,-803.1 -285,-849.1 -12.3,-12.3 -137.9,12.3 -282,55.2 -144.1,42.9 -432.2,110.4 -643.7,153.3 -211.5,42.9 -386.2,82.8 -392.3,85.8 -3.1,6.1 12.2,251.3 36.8,542.5 27.6,294.3 55.2,800 67.4,1124.9 l 21.5,588.5 h 858.2 858.2 z m 1839.1,92 c -58.2,-616.1 -229.9,-1250.6 -472,-1728.7 -156.3,-312.6 -447.5,-751 -625.3,-947.1 l -137.9,-153.3 -303.4,144.1 c -168.6,79.7 -367.8,168.6 -447.5,199.2 l -141,55.2 76.6,183.9 c 211.5,521.1 386.2,1302.7 444.4,2032.2 l 33.7,435.3 h 796.9 796.9 z m -4104.3,-2249.8 156.3,-21.4 -15.3,-110.4 c -79.7,-576.2 -285.1,-1382.4 -413.8,-1642.9 -76.6,-153.2 -205.4,-291.2 -269.7,-291.2 -125.7,0 -275.9,245.2 -410.7,671.3 -73.6,229.9 -229.9,956.3 -272.8,1265.9 l -18.4,113.4 128.7,12.3 c 226.8,18.3 950.2,21.4 1115.7,3 z m -1477.4,-110.4 c 6.1,-39.8 36.8,-208.4 64.4,-377 70.5,-441.4 214.6,-974.7 334.1,-1253.7 58.2,-134.8 98.1,-251.3 92,-257.5 -24.5,-24.5 -303.4,88.9 -518,214.6 -395.4,232.9 -839.9,723.4 -1134.1,1253.6 l -110.3,202.3 297.3,85.8 c 254.4,70.5 790.8,187 919.6,196.2 21.3,3.2 45.8,-27.5 55,-64.3 z m 2403.1,-27.6 c 383.2,-76.6 708.1,-174.7 708.1,-214.6 0,-58.2 -220.7,-429.1 -398.5,-668.2 -318.8,-426 -714.2,-751 -1106.5,-910.3 -266.6,-110.4 -275.9,-101.2 -162.5,134.9 131.8,272.8 266.7,760.1 349.4,1265.9 36.8,226.8 73.5,429.1 79.7,450.6 12.3,42.9 46,39.8 530.3,-58.3 z m -3788.5,-444.4 c 193.1,-392.3 597.7,-916.5 898.1,-1161.7 95,-76.6 156.3,-137.9 141,-137.9 -18.4,0 -153.3,42.9 -303.5,95 -321.8,113.4 -711.1,309.6 -1011.5,508.8 -239.1,159.4 -619.2,469 -619.2,508.8 -3.1,12.3 61.3,52.1 144.1,88.9 487.4,214.6 606.9,266.6 634.5,266.6 18.4,3.2 70.5,-73.5 116.5,-168.5 z m 4974.7,82.7 c 343.3,-144.1 564,-251.3 560.9,-272.8 -3.1,-39.9 -401.6,-358.6 -649.8,-521.1 -137.9,-92 -355.6,-217.7 -481.2,-282 -214.6,-107.3 -732.6,-306.5 -800,-306.5 -18.4,0 55.2,73.6 162.5,165.5 309.6,260.5 738.7,824.6 895,1177 30.7,70.5 67.4,128.7 79.7,128.7 12.2,0.2 116.4,-39.7 232.9,-88.8 z"
       id="path347" /></g></g><rect
   style="fill:#9777a8;fill-opacity:1"
   id="rect690"
   width="41.828011"
   height="15.479115"
   x="6.9484029"
   y="39.076168" /><g
   inkscape:groupmode="layer"
   id="layer1"
   inkscape:label="globus"><text
     xml:space="preserve"
     style="font-size:10.6667px;fill:#000000"
     x="7.7051597"
     y="50.496311"
     id="text250"><tspan
       sodipodi:role="line"
       id="tspan248"
       x="7.7051597"
       y="50.496311"
       style="font-size:10.6667px;fill:#ffffff">SHAPE</tspan></text></g></svg>
