<svg xmlns="http://www.w3.org/2000/svg" width="665px" height="770px" viewBox="0 0 665 770" xmlns:xlink="http://www.w3.org/1999/xlink" style="overflow: hidden; display: block; width: 665px; height: 770px;"><defs><path fill="rgb(255,255,255)" stroke="rgb(0,0,0)" d="M 0,0 L 5,-3 L 10,0 L 5,3 Z" fill-opacity="0" stroke-opacity="1" stroke-width="1" stroke-linecap="butt" stroke-linejoin="miter" stroke-miterlimit="10" id="ygc55_0"/><path fill="rgb(255,255,255)" stroke="rgb(0,0,0)" d="M 0,0 L 5,-3 L 10,0 L 5,3 Z" fill-opacity="0" stroke-opacity="1" stroke-width="1" stroke-linecap="butt" stroke-linejoin="miter" stroke-miterlimit="10" id="ygc55_1"/><path fill="rgb(255,255,255)" stroke="rgb(0,0,0)" d="M 0,0 L 5,-3 L 10,0 L 5,3 Z" fill-opacity="0" stroke-opacity="1" stroke-width="1" stroke-linecap="butt" stroke-linejoin="miter" stroke-miterlimit="10" id="ygc55_2"/><path fill="rgb(255,255,255)" stroke="rgb(0,0,0)" d="M 0,0 L 5,-3 L 10,0 L 5,3 Z" fill-opacity="0" stroke-opacity="1" stroke-width="1" stroke-linecap="butt" stroke-linejoin="miter" stroke-miterlimit="10" id="ygc55_3"/><path fill="rgb(255,255,255)" stroke="rgb(0,0,0)" d="M 0,0 L 5,-3 L 10,0 L 5,3 Z" fill-opacity="0" stroke-opacity="1" stroke-width="1" stroke-linecap="butt" stroke-linejoin="miter" stroke-miterlimit="10" id="ygc55_4"/><path fill="rgb(255,255,255)" stroke="rgb(0,0,0)" d="M 0,0 L 5,-3 L 10,0 L 5,3 Z" fill-opacity="0" stroke-opacity="1" stroke-width="1" stroke-linecap="butt" stroke-linejoin="miter" stroke-miterlimit="10" id="ygc55_5"/><path fill="rgb(255,255,255)" stroke="rgb(0,0,0)" d="M 0,0 L 5,-3 L 10,0 L 5,3 Z" fill-opacity="0" stroke-opacity="1" stroke-width="1" stroke-linecap="butt" stroke-linejoin="miter" stroke-miterlimit="10" id="ygc55_6"/><path fill="rgb(255,255,255)" stroke="rgb(0,0,0)" d="M 0,0 L 5,-3 L 10,0 L 5,3 Z" fill-opacity="0" stroke-opacity="1" stroke-width="1" stroke-linecap="butt" stroke-linejoin="miter" stroke-miterlimit="10" id="ygc55_7"/><path fill="rgb(255,255,255)" stroke="rgb(0,0,0)" d="M 0,0 L 5,-3 L 10,0 L 5,3 Z" fill-opacity="0" stroke-opacity="1" stroke-width="1" stroke-linecap="butt" stroke-linejoin="miter" stroke-miterlimit="10" id="ygc55_8"/></defs><g style="pointer-events:visiblePainted" transform="translate(-339.46000000000004 -36)" image-rendering="auto" shape-rendering="auto"><g><path fill="none" stroke="rgb(0,0,0)" d="M 681.9180845971605,246.0062981429242 L 678.7575799684454,156.99811055712274" stroke-opacity="1" stroke-width="1" stroke-dasharray="6,2" stroke-dashoffset="0" stroke-linecap="butt" stroke-linejoin="miter" stroke-miterlimit="1.45"/><ellipse fill="rgb(0,0,0)" fill-opacity="1" stroke="rgb(0,0,0)" stroke-opacity="1" stroke-width="1" stroke-linecap="butt" stroke-linejoin="miter" stroke-miterlimit="10" transform="matrix(0.035485657931007275 0.9993701857075803 -0.9993701857075803 0.035485657931007275 681.6492335517751 153.89354302620697)" ry="3" cy="3" cx="3" rx="3"/><use xlink:href="#ygc55_0" transform="matrix(-0.035485657931007275 -0.9993701857075803 0.9993701857075803 -0.035485657931007275 682.2374555185396 255.0006298142924)" style="pointer-events: none;"/></g><g><path fill="none" stroke="rgb(0,0,0)" d="M 664.6953946553629,529.8790986591899 L 652.75,606 L 736.75,606 L 736.75,522.820658540121" stroke-opacity="1" stroke-width="1" stroke-dasharray="6,2" stroke-dashoffset="0" stroke-linecap="butt" stroke-linejoin="miter" stroke-miterlimit="1.45"/><ellipse fill="rgb(0,0,0)" fill-opacity="1" stroke="rgb(0,0,0)" stroke-opacity="1" stroke-width="1" stroke-linecap="butt" stroke-linejoin="miter" stroke-miterlimit="10" transform="matrix(0 1 -1 0 739.75 519.820658540121)" ry="3" cy="3" cx="3" rx="3"/><use xlink:href="#ygc55_1" transform="matrix(-0.15502934180315864 0.9879098659189913 -0.9879098659189913 -0.15502934180315864 666.0906587315914 520.9879098659189)" style="pointer-events: none;"/></g><g><path fill="none" stroke="rgb(0,0,0)" d="M 686.96,530 L 686.96,562 L 755.75,562 L 755.75,522.80172743354" stroke-opacity="1" stroke-width="1" stroke-dasharray="6,2" stroke-dashoffset="0" stroke-linecap="butt" stroke-linejoin="miter" stroke-miterlimit="1.45"/><ellipse fill="rgb(0,0,0)" fill-opacity="1" stroke="rgb(0,0,0)" stroke-opacity="1" stroke-width="1" stroke-linecap="butt" stroke-linejoin="miter" stroke-miterlimit="10" transform="matrix(0 1 -1 0 758.75 519.80172743354)" ry="3" cy="3" cx="3" rx="3"/><use xlink:href="#ygc55_2" transform="matrix(0 1 -1 0 686.96 521)" style="pointer-events: none;"/></g><g><path fill="none" stroke="rgb(0,0,0)" d="M 775.4680153609194,379.30166042111284 L 868.9555953917243,271.3941647774212" stroke-opacity="1" stroke-width="1" stroke-dasharray="6,2" stroke-dashoffset="0" stroke-linecap="butt" stroke-linejoin="miter" stroke-miterlimit="1.45"/><ellipse fill="rgb(0,0,0)" fill-opacity="1" stroke="rgb(0,0,0)" stroke-opacity="1" stroke-width="1" stroke-linecap="butt" stroke-linejoin="miter" stroke-miterlimit="10" transform="matrix(-0.6548015360919418 0.7558008655271793 -0.7558008655271793 -0.6548015360919418 873.1874025965816 271.0911667891155)" ry="3" cy="3" cx="3" rx="3"/><use xlink:href="#ygc55_3" transform="matrix(0.6548015360919418 -0.7558008655271793 0.7558008655271793 0.6548015360919418 769.5748015360919 386.10386821085746)" style="pointer-events: none;"/></g><g><path fill="none" stroke="rgb(0,0,0)" d="M 868.5728724550894,457.05432412741044 L 771.7241382634732,420.2297103663396" stroke-opacity="1" stroke-width="1" stroke-dasharray="6,2" stroke-dashoffset="0" stroke-linecap="butt" stroke-linejoin="miter" stroke-miterlimit="1.45"/><ellipse fill="rgb(0,0,0)" fill-opacity="1" stroke="rgb(0,0,0)" stroke-opacity="1" stroke-width="1" stroke-linecap="butt" stroke-linejoin="miter" stroke-miterlimit="10" transform="matrix(0.9347127544910672 0.3554040891601019 -0.3554040891601019 0.9347127544910672 769.9862122674803 416.3593598353861)" ry="3" cy="3" cx="3" rx="3"/><use xlink:href="#ygc55_4" transform="matrix(-0.9347127544910672 -0.3554040891601019 0.3554040891601019 -0.9347127544910672 876.985287245509 460.2529609298513)" style="pointer-events: none;"/></g><g><path fill="none" stroke="rgb(0,0,0)" d="M 423.287430841984,405.8266165374847 L 417.2071669738199,438.0520150387546" stroke-opacity="1" stroke-width="1" stroke-dasharray="6,2" stroke-dashoffset="0" stroke-linecap="butt" stroke-linejoin="miter" stroke-miterlimit="1.45"/><ellipse fill="rgb(0,0,0)" fill-opacity="1" stroke="rgb(0,0,0)" stroke-opacity="1" stroke-width="1" stroke-linecap="butt" stroke-linejoin="miter" stroke-miterlimit="10" transform="matrix(0.18540785919782504 -0.9826616537484707 0.9826616537484707 0.18540785919782504 413.702958434981 440.44377642240653)" ry="3" cy="3" cx="3" rx="3"/><use xlink:href="#ygc55_5" transform="matrix(-0.18540785919782504 0.9826616537484707 -0.9826616537484707 -0.18540785919782504 424.95610157476443 396.9826616537485)" style="pointer-events: none;"/></g><g><path fill="none" stroke="rgb(0,0,0)" d="M 512.7444909850661,347.8436953084314 L 602.0766527044801,368.43456879061813" stroke-opacity="1" stroke-width="1" stroke-dasharray="6,2" stroke-dashoffset="0" stroke-linecap="butt" stroke-linejoin="miter" stroke-miterlimit="1.45"/><ellipse fill="rgb(0,0,0)" fill-opacity="1" stroke="rgb(0,0,0)" stroke-opacity="1" stroke-width="1" stroke-linecap="butt" stroke-linejoin="miter" stroke-miterlimit="10" transform="matrix(-0.9744490985066119 -0.22460844690182863 0.22460844690182863 -0.9744490985066119 604.3261746592946 372.03174142684344)" ry="3" cy="3" cx="3" rx="3"/><use xlink:href="#ygc55_6" transform="matrix(0.9744490985066119 0.22460844690182863 -0.22460844690182863 0.9744490985066119 503.9744490985066 345.8222192863149)" style="pointer-events: none;"/></g><g><path fill="none" stroke="rgb(0,0,0)" d="M 526.816414302981,640.072563078392 L 537,556 L 603.0022492138731,482.05776295058223" stroke-opacity="1" stroke-width="1" stroke-dasharray="6,2" stroke-dashoffset="0" stroke-linecap="butt" stroke-linejoin="miter" stroke-miterlimit="1.45"/><ellipse fill="rgb(0,0,0)" fill-opacity="1" stroke="rgb(0,0,0)" stroke-opacity="1" stroke-width="1" stroke-linecap="butt" stroke-linejoin="miter" stroke-miterlimit="10" transform="matrix(-0.6659169287089394 0.7460259003941172 -0.7460259003941172 -0.6659169287089394 607.2380777011823 481.81743603552667)" ry="3" cy="3" cx="3" rx="3"/><use xlink:href="#ygc55_7" transform="matrix(0.12024958076831652 -0.9927436921607934 0.9927436921607934 0.12024958076831652 525.7341680760662 649.0072563078392)" style="pointer-events: none;"/></g><g><path fill="none" stroke="rgb(0,0,0)" d="M 573.2155943955014,642.0223258385472 L 608,596 L 635.786058628939,522.8047087788842" stroke-opacity="1" stroke-width="1" stroke-dasharray="6,2" stroke-dashoffset="0" stroke-linecap="butt" stroke-linejoin="miter" stroke-miterlimit="1.45"/><ellipse fill="rgb(0,0,0)" fill-opacity="1" stroke="rgb(0,0,0)" stroke-opacity="1" stroke-width="1" stroke-linecap="butt" stroke-linejoin="miter" stroke-miterlimit="10" transform="matrix(-0.35490353394342705 0.9349029262947394 -0.9349029262947394 -0.35490353394342705 639.6554780096535 521.0647106018303)" ry="3" cy="3" cx="3" rx="3"/><use xlink:href="#ygc55_8" transform="matrix(0.6029652972907227 -0.7977674161452764 0.7977674161452764 0.6029652972907227 567.7889067198848 649.2022325838548)" style="pointer-events: none;"/></g><g transform="translate(605 256)"><path d="M 0,10 Q 0,0 10,0 L 153.92,0 Q 163.92,0 163.92,10 L 163.92,24 L 0,24 Z" fill="rgb(255,255,225)" fill-opacity="1"/><path d="M 163.92,24 L 163.92,254 Q 163.92,264 153.92,264 L 10,264 Q 0,264 0,254 L 0,24 Z" fill="rgb(255,255,225)" fill-opacity="1"/><path d="M 0,10 Q 0,0 10,0 L 153.92,0 Q 163.92,0 163.92,10 L 163.92,254 Q 163.92,264 153.92,264 L 10,264 Q 0,264 0,254 Z M 0,24 L 163.92,24" fill="none" stroke="rgb(0,0,0)" stroke-opacity="1" stroke-width="1" stroke-linecap="butt" stroke-linejoin="miter" stroke-miterlimit="1.45"/><g transform="translate(0 5)"><text font-family="'Arial'" font-size="12px" font-style="normal" font-weight="normal" text-decoration="none" text-anchor="middle" fill="rgb(0,0,0)" fill-opacity="1" transform="translate(81.96 0)"><tspan dy="0.9166666666666666em" x="0">job</tspan></text></g><g transform="translate(5 26)"><text font-family="'Arial'" font-size="12px" font-style="normal" font-weight="normal" text-decoration="none" text-anchor="start" fill="rgb(0,0,0)" fill-opacity="1" transform="translate(0 1)"><tspan dy="0.9166666666666666em" x="0">idjob</tspan></text></g><g transform="translate(5 42)"><text font-family="'Arial'" font-size="12px" font-style="normal" font-weight="normal" text-decoration="none" text-anchor="start" fill="rgb(0,0,0)" fill-opacity="1" transform="translate(0 1)"><tspan dy="0.9166666666666666em" x="0">name</tspan></text></g><g transform="translate(5 58)"><text font-family="'Arial'" font-size="12px" font-style="normal" font-weight="normal" text-decoration="none" text-anchor="start" fill="rgb(0,0,0)" fill-opacity="1" transform="translate(0 1)"><tspan dy="0.9166666666666666em" x="0">description</tspan></text></g><g transform="translate(5 74)"><text font-family="'Arial'" font-size="12px" font-style="normal" font-weight="normal" text-decoration="none" text-anchor="start" fill="rgb(0,0,0)" fill-opacity="1" transform="translate(0 1)"><tspan dy="0.9166666666666666em" x="0">responsibleperson</tspan></text></g><g transform="translate(5 90)"><text font-family="'Arial'" font-size="12px" font-style="normal" font-weight="normal" text-decoration="none" text-anchor="start" fill="rgb(0,0,0)" fill-opacity="1" transform="translate(0 1)"><tspan dy="0.9166666666666666em" x="0">starttime</tspan></text></g><g transform="translate(5 106)"><text font-family="'Arial'" font-size="12px" font-style="normal" font-weight="normal" text-decoration="none" text-anchor="start" fill="rgb(0,0,0)" fill-opacity="1" transform="translate(0 1)"><tspan dy="0.9166666666666666em" x="0">endtime</tspan></text></g><g transform="translate(5 122)"><text font-family="'Arial'" font-size="12px" font-style="normal" font-weight="normal" text-decoration="none" text-anchor="start" fill="rgb(0,0,0)" fill-opacity="1" transform="translate(0 1)"><tspan dy="0.9166666666666666em" x="0">timeout</tspan></text></g><g transform="translate(5 138)"><text font-family="'Arial'" font-size="12px" font-style="normal" font-weight="normal" text-decoration="none" text-anchor="start" fill="rgb(0,0,0)" fill-opacity="1" transform="translate(0 1)"><tspan dy="0.9166666666666666em" x="0">isdisabled</tspan></text></g><g transform="translate(5 154)"><text font-family="'Arial'" font-size="12px" font-style="normal" font-weight="normal" text-decoration="none" text-anchor="start" fill="rgb(0,0,0)" fill-opacity="1" transform="translate(0 1)"><tspan dy="0.9166666666666666em" x="0">jobinterval</tspan></text></g><g transform="translate(5 170)"><text font-family="'Arial'" font-size="12px" font-style="normal" font-weight="normal" text-decoration="none" text-anchor="start" fill="rgb(0,0,0)" fill-opacity="1" transform="translate(0 1)"><tspan dy="0.9166666666666666em" x="0">jobclassid</tspan></text></g><g transform="translate(5 186)"><text font-family="'Arial'" font-size="12px" font-style="normal" font-weight="normal" text-decoration="none" text-anchor="start" fill="rgb(0,0,0)" fill-opacity="1" transform="translate(0 1)"><tspan dy="0.9166666666666666em" x="0">onsuccessnextjobid</tspan></text></g><g transform="translate(5 202)"><text font-family="'Arial'" font-size="12px" font-style="normal" font-weight="normal" text-decoration="none" text-anchor="start" fill="rgb(0,0,0)" fill-opacity="1" transform="translate(0 1)"><tspan dy="0.9166666666666666em" x="0">onfailurenextjobid						</tspan></text></g></g><g transform="translate(634 61)"><path d="M 0,10 Q 0,0 10,0 L 76,0 Q 86,0 86,10 L 86,24 L 0,24 Z" fill="rgb(255,255,225)" fill-opacity="1"/><path d="M 86,24 L 86,83 Q 86,93 76,93 L 10,93 Q 0,93 0,83 L 0,24 Z" fill="rgb(255,255,225)" fill-opacity="1"/><path d="M 0,10 Q 0,0 10,0 L 76,0 Q 86,0 86,10 L 86,83 Q 86,93 76,93 L 10,93 Q 0,93 0,83 Z M 0,24 L 86,24" fill="none" stroke="rgb(0,0,0)" stroke-opacity="1" stroke-width="1" stroke-linecap="butt" stroke-linejoin="miter" stroke-miterlimit="1.45"/><g transform="translate(0 5)"><text font-family="'Arial'" font-size="12px" font-style="normal" font-weight="normal" text-decoration="none" text-anchor="middle" fill="rgb(0,0,0)" fill-opacity="1" transform="translate(43 0)"><tspan dy="0.9166666666666666em" x="0">jobclass</tspan></text></g><g transform="translate(5 26)"><text font-family="'Arial'" font-size="12px" font-style="normal" font-weight="normal" text-decoration="none" text-anchor="start" fill="rgb(0,0,0)" fill-opacity="1" transform="translate(0 1)"><tspan dy="0.9166666666666666em" x="0">idjobclass</tspan></text></g><g transform="translate(5 42)"><text font-family="'Arial'" font-size="12px" font-style="normal" font-weight="normal" text-decoration="none" text-anchor="start" fill="rgb(0,0,0)" fill-opacity="1" transform="translate(0 1)"><tspan dy="0.9166666666666666em" x="0">javaclass</tspan></text></g><g transform="translate(5 58)"><text font-family="'Arial'" font-size="12px" font-style="normal" font-weight="normal" text-decoration="none" text-anchor="start" fill="rgb(0,0,0)" fill-opacity="1" transform="translate(0 1)"><tspan dy="0.9166666666666666em" x="0">timeout						</tspan></text></g></g><g transform="translate(877.9200000000001 405)"><path d="M 0,10 Q 0,0 10,0 L 92,0 Q 102,0 102,10 L 102,24 L 0,24 Z" fill="rgb(255,255,225)" fill-opacity="1"/><path d="M 102,24 L 102,140 Q 102,150 92,150 L 10,150 Q 0,150 0,140 L 0,24 Z" fill="rgb(255,255,225)" fill-opacity="1"/><path d="M 0,10 Q 0,0 10,0 L 92,0 Q 102,0 102,10 L 102,140 Q 102,150 92,150 L 10,150 Q 0,150 0,140 Z M 0,24 L 102,24" fill="none" stroke="rgb(0,0,0)" stroke-opacity="1" stroke-width="1" stroke-linecap="butt" stroke-linejoin="miter" stroke-miterlimit="1.45"/><g transform="translate(0 5)"><text font-family="'Arial'" font-size="12px" font-style="normal" font-weight="normal" text-decoration="none" text-anchor="middle" fill="rgb(0,0,0)" fill-opacity="1" transform="translate(51 0)"><tspan dy="0.9166666666666666em" x="0">log</tspan></text></g><g transform="translate(5 26)"><text font-family="'Arial'" font-size="12px" font-style="normal" font-weight="normal" text-decoration="none" text-anchor="start" fill="rgb(0,0,0)" fill-opacity="1" transform="translate(0 1)"><tspan dy="0.9166666666666666em" x="0">idlog</tspan></text></g><g transform="translate(5 42)"><text font-family="'Arial'" font-size="12px" font-style="normal" font-weight="normal" text-decoration="none" text-anchor="start" fill="rgb(0,0,0)" fill-opacity="1" transform="translate(0 1)"><tspan dy="0.9166666666666666em" x="0">jobid</tspan></text></g><g transform="translate(5 58)"><text font-family="'Arial'" font-size="12px" font-style="normal" font-weight="normal" text-decoration="none" text-anchor="start" fill="rgb(0,0,0)" fill-opacity="1" transform="translate(0 1)"><tspan dy="0.9166666666666666em" x="0">log_time</tspan></text></g><g transform="translate(5 74)"><text font-family="'Arial'" font-size="12px" font-style="normal" font-weight="normal" text-decoration="none" text-anchor="start" fill="rgb(0,0,0)" fill-opacity="1" transform="translate(0 1)"><tspan dy="0.9166666666666666em" x="0">status</tspan></text></g><g transform="translate(5 90)"><text font-family="'Arial'" font-size="12px" font-style="normal" font-weight="normal" text-decoration="none" text-anchor="start" fill="rgb(0,0,0)" fill-opacity="1" transform="translate(0 1)"><tspan dy="0.9166666666666666em" x="0">description</tspan></text></g><g transform="translate(5 106)"><text font-family="'Arial'" font-size="12px" font-style="normal" font-weight="normal" text-decoration="none" text-anchor="start" fill="rgb(0,0,0)" fill-opacity="1" transform="translate(0 1)"><tspan dy="0.9166666666666666em" x="0">hasbeenseen		…</tspan></text></g></g><g transform="translate(372 265)"><path d="M 0,10 Q 0,0 10,0 L 121,0 Q 131,0 131,10 L 131,24 L 0,24 Z" fill="rgb(255,255,225)" fill-opacity="1"/><path d="M 131,24 L 131,121 Q 131,131 121,131 L 10,131 Q 0,131 0,121 L 0,24 Z" fill="rgb(255,255,225)" fill-opacity="1"/><path d="M 0,10 Q 0,0 10,0 L 121,0 Q 131,0 131,10 L 131,121 Q 131,131 121,131 L 10,131 Q 0,131 0,121 Z M 0,24 L 131,24" fill="none" stroke="rgb(0,0,0)" stroke-opacity="1" stroke-width="1" stroke-linecap="butt" stroke-linejoin="miter" stroke-miterlimit="1.45"/><g transform="translate(0 5)"><text font-family="'Arial'" font-size="12px" font-style="normal" font-weight="normal" text-decoration="none" text-anchor="middle" fill="rgb(0,0,0)" fill-opacity="1" transform="translate(65.5 0)"><tspan dy="0.9166666666666666em" x="0">parameter</tspan></text></g><g transform="translate(5 26)"><text font-family="'Arial'" font-size="12px" font-style="normal" font-weight="normal" text-decoration="none" text-anchor="start" fill="rgb(0,0,0)" fill-opacity="1" transform="translate(0 1)"><tspan dy="0.9166666666666666em" x="0">idparameter</tspan></text></g><g transform="translate(5 42)"><text font-family="'Arial'" font-size="12px" font-style="normal" font-weight="normal" text-decoration="none" text-anchor="start" fill="rgb(0,0,0)" fill-opacity="1" transform="translate(0 1)"><tspan dy="0.9166666666666666em" x="0">jobid</tspan></text></g><g transform="translate(5 58)"><text font-family="'Arial'" font-size="12px" font-style="normal" font-weight="normal" text-decoration="none" text-anchor="start" fill="rgb(0,0,0)" fill-opacity="1" transform="translate(0 1)"><tspan dy="0.9166666666666666em" x="0">nummerical_order</tspan></text></g><g transform="translate(5 74)"><text font-family="'Arial'" font-size="12px" font-style="normal" font-weight="normal" text-decoration="none" text-anchor="start" fill="rgb(0,0,0)" fill-opacity="1" transform="translate(0 1)"><tspan dy="0.9166666666666666em" x="0">argument</tspan></text></g><g transform="translate(5 90)"><text font-family="'Arial'" font-size="12px" font-style="normal" font-weight="normal" text-decoration="none" text-anchor="start" fill="rgb(0,0,0)" fill-opacity="1" transform="translate(0 1)"><tspan dy="0.9166666666666666em" x="0">idvalue						</tspan></text></g></g><g transform="translate(430 650)"><path d="M 0,10 Q 0,0 10,0 L 165.36,0 Q 175.36,0 175.36,10 L 175.36,24 L 0,24 Z" fill="rgb(255,255,225)" fill-opacity="1"/><path d="M 175.36,24 L 175.36,121 Q 175.36,131 165.36,131 L 10,131 Q 0,131 0,121 L 0,24 Z" fill="rgb(255,255,225)" fill-opacity="1"/><path d="M 0,10 Q 0,0 10,0 L 165.36,0 Q 175.36,0 175.36,10 L 175.36,121 Q 175.36,131 165.36,131 L 10,131 Q 0,131 0,121 Z M 0,24 L 175.36,24" fill="none" stroke="rgb(0,0,0)" stroke-opacity="1" stroke-width="1" stroke-linecap="butt" stroke-linejoin="miter" stroke-miterlimit="1.45"/><g transform="translate(0 5)"><text font-family="'Arial'" font-size="12px" font-style="normal" font-weight="normal" text-decoration="none" text-anchor="middle" fill="rgb(0,0,0)" fill-opacity="1" transform="translate(87.68 0)"><tspan dy="0.9166666666666666em" x="0">parametermap</tspan></text></g><g transform="translate(5 26)"><text font-family="'Arial'" font-size="12px" font-style="normal" font-weight="normal" text-decoration="none" text-anchor="start" fill="rgb(0,0,0)" fill-opacity="1" transform="translate(0 1)"><tspan dy="0.9166666666666666em" x="0">idparametermap</tspan></text></g><g transform="translate(5 42)"><text font-family="'Arial'" font-size="12px" font-style="normal" font-weight="normal" text-decoration="none" text-anchor="start" fill="rgb(0,0,0)" fill-opacity="1" transform="translate(0 1)"><tspan dy="0.9166666666666666em" x="0">previousjobid</tspan></text></g><g transform="translate(5 58)"><text font-family="'Arial'" font-size="12px" font-style="normal" font-weight="normal" text-decoration="none" text-anchor="start" fill="rgb(0,0,0)" fill-opacity="1" transform="translate(0 1)"><tspan dy="0.9166666666666666em" x="0">nextjobid</tspan></text></g><g transform="translate(5 74)"><text font-family="'Arial'" font-size="12px" font-style="normal" font-weight="normal" text-decoration="none" text-anchor="start" fill="rgb(0,0,0)" fill-opacity="1" transform="translate(0 1)"><tspan dy="0.9166666666666666em" x="0">previousjobargument</tspan></text></g><g transform="translate(5 90)"><text font-family="'Arial'" font-size="12px" font-style="normal" font-weight="normal" text-decoration="none" text-anchor="start" fill="rgb(0,0,0)" fill-opacity="1" transform="translate(0 1)"><tspan dy="0.9166666666666666em" x="0">nextjobargument						</tspan></text></g></g><g transform="translate(870.9200000000001 221.5)"><path d="M 0,10 Q 0,0 10,0 L 72,0 Q 82,0 82,10 L 82,24 L 0,24 Z" fill="rgb(255,255,225)" fill-opacity="1"/><path d="M 82,24 L 82,83 Q 82,93 72,93 L 10,93 Q 0,93 0,83 L 0,24 Z" fill="rgb(255,255,225)" fill-opacity="1"/><path d="M 0,10 Q 0,0 10,0 L 72,0 Q 82,0 82,10 L 82,83 Q 82,93 72,93 L 10,93 Q 0,93 0,83 Z M 0,24 L 82,24" fill="none" stroke="rgb(0,0,0)" stroke-opacity="1" stroke-width="1" stroke-linecap="butt" stroke-linejoin="miter" stroke-miterlimit="1.45"/><g transform="translate(0 5)"><text font-family="'Arial'" font-size="12px" font-style="normal" font-weight="normal" text-decoration="none" text-anchor="middle" fill="rgb(0,0,0)" fill-opacity="1" transform="translate(41 0)"><tspan dy="0.9166666666666666em" x="0">person</tspan></text></g><g transform="translate(5 26)"><text font-family="'Arial'" font-size="12px" font-style="normal" font-weight="normal" text-decoration="none" text-anchor="start" fill="rgb(0,0,0)" fill-opacity="1" transform="translate(0 1)"><tspan dy="0.9166666666666666em" x="0">idperson</tspan></text></g><g transform="translate(5 42)"><text font-family="'Arial'" font-size="12px" font-style="normal" font-weight="normal" text-decoration="none" text-anchor="start" fill="rgb(0,0,0)" fill-opacity="1" transform="translate(0 1)"><tspan dy="0.9166666666666666em" x="0">name</tspan></text></g><g transform="translate(5 58)"><text font-family="'Arial'" font-size="12px" font-style="normal" font-weight="normal" text-decoration="none" text-anchor="start" fill="rgb(0,0,0)" fill-opacity="1" transform="translate(0 1)"><tspan dy="0.9166666666666666em" x="0">email						</tspan></text></g></g><g transform="translate(364 441)"><path d="M 0,10 Q 0,0 10,0 L 67,0 Q 77,0 77,10 L 77,24 L 0,24 Z" fill="rgb(255,255,225)" fill-opacity="1"/><path d="M 77,24 L 77,140 Q 77,150 67,150 L 10,150 Q 0,150 0,140 L 0,24 Z" fill="rgb(255,255,225)" fill-opacity="1"/><path d="M 0,10 Q 0,0 10,0 L 67,0 Q 77,0 77,10 L 77,140 Q 77,150 67,150 L 10,150 Q 0,150 0,140 Z M 0,24 L 77,24" fill="none" stroke="rgb(0,0,0)" stroke-opacity="1" stroke-width="1" stroke-linecap="butt" stroke-linejoin="miter" stroke-miterlimit="1.45"/><g transform="translate(0 5)"><text font-family="'Arial'" font-size="12px" font-style="normal" font-weight="normal" text-decoration="none" text-anchor="middle" fill="rgb(0,0,0)" fill-opacity="1" transform="translate(38.5 0)"><tspan dy="0.9166666666666666em" x="0">value</tspan></text></g><g transform="translate(5 26)"><text font-family="'Arial'" font-size="12px" font-style="normal" font-weight="normal" text-decoration="none" text-anchor="start" fill="rgb(0,0,0)" fill-opacity="1" transform="translate(0 1)"><tspan dy="0.9166666666666666em" x="0">idvalue</tspan></text></g><g transform="translate(5 42)"><text font-family="'Arial'" font-size="12px" font-style="normal" font-weight="normal" text-decoration="none" text-anchor="start" fill="rgb(0,0,0)" fill-opacity="1" transform="translate(0 1)"><tspan dy="0.9166666666666666em" x="0">type</tspan></text></g><g transform="translate(5 58)"><text font-family="'Arial'" font-size="12px" font-style="normal" font-weight="normal" text-decoration="none" text-anchor="start" fill="rgb(0,0,0)" fill-opacity="1" transform="translate(0 1)"><tspan dy="0.9166666666666666em" x="0">vint</tspan></text></g><g transform="translate(5 74)"><text font-family="'Arial'" font-size="12px" font-style="normal" font-weight="normal" text-decoration="none" text-anchor="start" fill="rgb(0,0,0)" fill-opacity="1" transform="translate(0 1)"><tspan dy="0.9166666666666666em" x="0">vdouble</tspan></text></g><g transform="translate(5 90)"><text font-family="'Arial'" font-size="12px" font-style="normal" font-weight="normal" text-decoration="none" text-anchor="start" fill="rgb(0,0,0)" fill-opacity="1" transform="translate(0 1)"><tspan dy="0.9166666666666666em" x="0">vstring</tspan></text></g><g transform="translate(5 106)"><text font-family="'Arial'" font-size="12px" font-style="normal" font-weight="normal" text-decoration="none" text-anchor="start" fill="rgb(0,0,0)" fill-opacity="1" transform="translate(0 1)"><tspan dy="0.9166666666666666em" x="0">vpath						</tspan></text></g></g></g></svg>