<?xml version="1.0" encoding="UTF-8" standalone="no"?>
<!-- Generator: Adobe Illustrator 19.0.0, SVG Export Plug-In . SVG Version: 6.00 Build 0)  -->

<svg
   xmlns:dc="http://purl.org/dc/elements/1.1/"
   xmlns:cc="http://creativecommons.org/ns#"
   xmlns:rdf="http://www.w3.org/1999/02/22-rdf-syntax-ns#"
   xmlns:svg="http://www.w3.org/2000/svg"
   xmlns="http://www.w3.org/2000/svg"
   xmlns:sodipodi="http://sodipodi.sourceforge.net/DTD/sodipodi-0.dtd"
   xmlns:inkscape="http://www.inkscape.org/namespaces/inkscape"
   version="1.1"
   id="Layer_1"
   x="0px"
   y="0px"
   viewBox="0 0 512 512"
   style="enable-background:new 0 0 512 512;"
   xml:space="preserve"
   sodipodi:docname="unknown.svg"
   inkscape:version="0.92.4 (5da689c313, 2019-01-14)"><metadata
   id="metadata4044"><rdf:RDF><cc:Work
       rdf:about=""><dc:format>image/svg+xml</dc:format><dc:type
         rdf:resource="http://purl.org/dc/dcmitype/StillImage" /><dc:title></dc:title></cc:Work></rdf:RDF></metadata><defs
   id="defs4042" /><sodipodi:namedview
   pagecolor="#ffffff"
   bordercolor="#666666"
   borderopacity="1"
   objecttolerance="10"
   gridtolerance="10"
   guidetolerance="10"
   inkscape:pageopacity="0"
   inkscape:pageshadow="2"
   inkscape:window-width="1920"
   inkscape:window-height="1137"
   id="namedview4040"
   showgrid="false"
   inkscape:zoom="1.8359375"
   inkscape:cx="256"
   inkscape:cy="256"
   inkscape:window-x="-8"
   inkscape:window-y="-8"
   inkscape:window-maximized="1"
   inkscape:current-layer="Layer_1" />
<path
   style="fill:#E2E5E7;"
   d="M128,0c-17.6,0-32,14.4-32,32v448c0,17.6,14.4,32,32,32h320c17.6,0,32-14.4,32-32V128L352,0H128z"
   id="path3993" />
<path
   style="fill:#B0B7BD;"
   d="M384,128h96L352,0v96C352,113.6,366.4,128,384,128z"
   id="path3995" />
<polygon
   style="fill:#CAD1D8;"
   points="480,224 384,128 480,128 "
   id="polygon3997" />
<path
   style="fill:#576D7E;"
   d="M416,416c0,8.8-7.2,16-16,16H48c-8.8,0-16-7.2-16-16V256c0-8.8,7.2-16,16-16h352c8.8,0,16,7.2,16,16  V416z"
   id="path3999" />

<path
   style="fill:#CAD1D8;"
   d="M400,432H96v16h304c8.8,0,16-7.2,16-16v-16C416,424.8,408.8,432,400,432z"
   id="path4007" />
<g
   id="g4009">
</g>
<g
   id="g4011">
</g>
<g
   id="g4013">
</g>
<g
   id="g4015">
</g>
<g
   id="g4017">
</g>
<g
   id="g4019">
</g>
<g
   id="g4021">
</g>
<g
   id="g4023">
</g>
<g
   id="g4025">
</g>
<g
   id="g4027">
</g>
<g
   id="g4029">
</g>
<g
   id="g4031">
</g>
<g
   id="g4033">
</g>
<g
   id="g4035">
</g>
<g
   id="g4037">
</g>
<text
   xml:space="preserve"
   style="font-style:normal;font-weight:normal;font-size:40px;line-height:1.25;font-family:sans-serif;letter-spacing:0px;word-spacing:0px;fill:#000000;fill-opacity:1;stroke:none"
   x="186.28085"
   y="382.91064"
   id="text4048"><tspan
     sodipodi:role="line"
     id="tspan4046"
     x="186.28085"
     y="382.91064"
     style="font-size:133.33332825px">?</tspan></text>
<path
   style="stroke-width:0.54468083;fill:#ececec"
   d="m 212.42553,349.5272 c 0,-7.8146 0.80683,-12.2355 2.84823,-15.60655 0.64537,-1.06572 4.64793,-5.499 8.89457,-9.85174 4.24664,-4.35274 8.25743,-8.96525 8.91287,-10.25002 2.53575,-4.97048 1.9737,-10.52752 -1.44782,-14.31474 -3.06621,-3.39393 -5.60336,-4.45165 -11.30998,-4.71504 -7.16951,-0.33091 -13.30972,1.50968 -20.84461,6.2484 -1.57859,0.99277 -2.99624,1.80504 -3.15035,1.80504 -0.1541,0 -0.21062,-2.63489 -0.12559,-5.85532 l 0.1546,-5.85532 4.0851,-2.01319 c 5.87293,-2.89426 11.76395,-4.37056 18.65911,-4.67601 9.9264,-0.43972 16.74517,1.70293 22.05598,6.93063 4.01023,3.94748 5.71877,7.86339 6.01963,13.7968 0.44293,8.73551 -1.55273,12.44375 -12.77397,23.73593 -4.0632,4.0889 -7.90179,8.41478 -8.53019,9.61308 -0.97133,1.85222 -1.17558,3.38271 -1.36294,10.21276 l -0.22039,8.03405 h -5.93213 -5.93212 z"
   id="path4050"
   inkscape:connector-curvature="0" /><path
   style="fill:#ececec;stroke-width:0.54468083"
   d="m 211.88085,374.74043 v -8.17022 h 6.53617 6.53617 v 8.17022 8.17021 h -6.53617 -6.53617 z"
   id="path4052"
   inkscape:connector-curvature="0" /></svg>