<?xml version="1.0" encoding="UTF-8"?>
<svg width="91.44mm" height="91.44mm" clip-rule="evenodd" fill-rule="evenodd" image-rendering="optimizeQuality" shape-rendering="geometricPrecision" text-rendering="geometricPrecision" version="1.1" viewBox="0 0 9144 9144" xmlns="http://www.w3.org/2000/svg">
 <defs>
  <style type="text/css">.fil1 {fill:white;fill-rule:nonzero} .fil0 {fill:url(#a)}</style>
  <linearGradient id="a" x1="10043" x2="-898.9" y1="6303" y2="2841" gradientUnits="userSpaceOnUse">
   <stop stop-color="#48CFAE" offset="0"/>
   <stop stop-color="#4FC0E8" offset="1"/>
  </linearGradient>
 </defs>
 <polygon class="fil0" points="0 0 9144 0 9144 9144 0 9144"/>
 <path class="fil1" d="m2949 6284c-49 0-88-40-88-88 0-253 14-447 65-605h-471c-48 0-88-40-88-88 0-234 24-376 137-489 97-97 252-159 512-231-88-65-154-181-185-311-22-90-28-187-16-280 13-96 47-189 105-262 77-98 194-161 358-161s281 63 358 161c58 73 92 166 105 262 13 93 6 190-16 280-31 130-96 246-184 311 71 19 135 39 191 58 65 22 120 44 168 68 80-25 167-49 260-75v-92c-184-102-323-334-387-600-41-167-53-348-30-521 24-176 85-343 190-476 137-172 345-285 639-285s502 113 639 285c105 133 166 300 190 476 23 173 11 354-30 521-64 266-203 498-387 600v92c93 26 180 50 260 75 48-24 103-46 168-68 56-19 120-38 191-58-88-65-153-181-184-311-22-90-29-187-16-280 13-96 47-189 105-262 77-98 194-161 358-161s281 63 358 161c58 73 92 166 105 262 12 93 6 190-16 280-31 130-97 246-185 311 260 72 415 134 512 231 113 113 137 255 137 489 0 48-40 88-88 88h-471c51 158 65 352 65 605 0 48-39 88-88 88h-3246zm3157-177c-4-243-25-418-93-552-5-7-9-15-12-23-23-42-52-81-88-116-167-167-480-279-1036-428-40-8-70-44-70-86v-216c0-35 22-68 56-82 157-61 279-263 337-503 36-147 47-306 26-456-19-146-68-284-153-390-105-132-267-218-501-218s-396 86-501 218c-85 106-134 244-153 390-21 150-10 309 26 456 57 238 178 438 332 501 35 12 61 45 61 84v216c0 39-26 74-66 85-559 150-873 261-1040 429-36 35-65 74-88 116-3 8-7 16-12 22-68 135-89 310-93 553h3068zm-3099-693c28-43 60-84 99-122 118-118 286-209 531-297-63-20-135-41-218-63-39-11-65-46-65-85v-109c0-39 25-72 60-84 64-28 115-117 140-223 17-70 22-145 13-215-9-67-31-129-69-177-45-57-116-94-220-94-103 0-175 37-220 94-38 48-60 110-69 177-9 70-4 145 13 215 26 109 79 199 144 225 35 13 56 46 56 82v109c0 42-30 78-70 86-273 73-425 127-503 205-59 59-79 143-84 276h462zm2500-419c245 88 413 179 531 297 39 38 71 79 99 122h462c-5-133-25-217-84-276-78-78-230-132-503-205-40-8-70-44-70-86v-109c0-36 21-69 56-82 65-26 118-116 144-225 17-69 22-145 13-215-9-67-31-129-69-177-45-57-117-94-220-94-104 0-175 37-220 94-38 48-60 110-69 177-9 70-4 145 13 215 25 106 76 195 140 223 35 12 60 45 60 84v109c0 39-26 74-65 85-83 22-155 43-218 63z"/>
</svg>
