<?xml version="1.0" encoding="iso-8859-1"?>
<!-- Generator: Adobe Illustrator 18.0.0, SVG Export Plug-In . SVG Version: 6.00 Build 0)  -->
<!DOCTYPE svg PUBLIC "-//W3C//DTD SVG 1.1//EN" "http://www.w3.org/Graphics/SVG/1.1/DTD/svg11.dtd">
<svg version="1.1" id="Capa_1" xmlns="http://www.w3.org/2000/svg" xmlns:xlink="http://www.w3.org/1999/xlink" x="0px" y="0px"
	 viewBox="0 0 56 56" style="enable-background:new 0 0 56 56;" xml:space="preserve">
<g>
	<path style="fill:#E9E9E0;" d="M36.985,0H7.963C7.155,0,6.5,0.655,6.5,1.926V55c0,0.345,0.655,1,1.463,1h40.074
		c0.808,0,1.463-0.655,1.463-1V12.978c0-0.696-0.093-0.92-0.257-1.085L37.607,0.257C37.442,0.093,37.218,0,36.985,0z"/>
	<polygon style="fill:#D9D7CA;" points="37.5,0.151 37.5,12 49.349,12 	"/>
	<path style="fill:#7D6599;" d="M48.037,56H7.963C7.155,56,6.5,55.345,6.5,54.537V39h43v15.537C49.5,55.345,48.845,56,48.037,56z"/>
	<path style="fill:#C8BDB8;" d="M35.67,14.986c-0.567-0.796-1.3-1.543-2.308-2.351c-3.914-3.131-4.757-6.277-4.862-6.738V5
		c0-0.553-0.447-1-1-1s-1,0.447-1,1v1v8.359v9.053h-3.706c-3.882,0-6.294,1.961-6.294,5.117c0,3.466,2.24,5.706,5.706,5.706
		c3.471,0,6.294-2.823,6.294-6.294V16.468l0.298,0.243c0.34,0.336,0.861,0.72,1.521,1.205c2.318,1.709,6.2,4.567,5.224,7.793
		C35.514,25.807,35.5,25.904,35.5,26c0,0.43,0.278,0.826,0.71,0.957C36.307,26.986,36.404,27,36.5,27c0.43,0,0.826-0.278,0.957-0.71
		C39.084,20.915,37.035,16.9,35.67,14.986z M26.5,27.941c0,2.368-1.926,4.294-4.294,4.294c-2.355,0-3.706-1.351-3.706-3.706
		c0-2.576,2.335-3.117,4.294-3.117H26.5V27.941z M31.505,16.308c-0.571-0.422-1.065-0.785-1.371-1.081l-1.634-1.34v-3.473
		c0.827,1.174,1.987,2.483,3.612,3.783c0.858,0.688,1.472,1.308,1.929,1.95c0.716,1.003,1.431,2.339,1.788,3.978
		C34.502,18.515,32.745,17.221,31.505,16.308z"/>

</g>
<g>
</g>
<g>
</g>
<g>
</g>
<g>
</g>
<g>
</g>
<g>
</g>
<g>
</g>
<g>
</g>
<g>
</g>
<g>
</g>
<g>
</g>
<g>
</g>
<g>
</g>
<g>
</g>
<g>
</g>
</svg>
